<svg width="16" height="18" viewBox="0 0 16 18" fill="none" xmlns="http://www.w3.org/2000/svg">
<path d="M8.39804 16.804L8.85847 17.6917L8.85847 17.6917L8.39804 16.804ZM7.60196 16.804L7.14153 17.6917L7.14153 17.6917L7.60196 16.804ZM14 8C14 10.1458 12.9079 11.9159 11.545 13.2906C10.183 14.6644 8.6342 15.555 7.9376 15.9163L8.85847 17.6917C9.64481 17.2838 11.397 16.2805 12.9653 14.6987C14.5326 13.1178 16 10.8706 16 8H14ZM8 2C11.3137 2 14 4.68629 14 8H16C16 3.58172 12.4183 0 8 0V2ZM2 8C2 4.68629 4.68629 2 8 2V0C3.58172 0 0 3.58172 0 8H2ZM8.0624 15.9163C7.3658 15.555 5.81702 14.6644 4.45503 13.2906C3.09211 11.9159 2 10.1458 2 8H0C0 10.8706 1.46741 13.1178 3.03474 14.6987C4.60299 16.2805 6.35519 17.2838 7.14153 17.6917L8.0624 15.9163ZM7.9376 15.9163C7.95139 15.9091 7.97326 15.9023 8 15.9023C8.02674 15.9023 8.04861 15.9091 8.0624 15.9163L7.14153 17.6917C7.68309 17.9726 8.31691 17.9726 8.85847 17.6917L7.9376 15.9163ZM10 8C10 9.10457 9.10457 10 8 10V12C10.2091 12 12 10.2091 12 8H10ZM8 6C9.10457 6 10 6.89543 10 8H12C12 5.79086 10.2091 4 8 4V6ZM6 8C6 6.89543 6.89543 6 8 6V4C5.79086 4 4 5.79086 4 8H6ZM8 10C6.89543 10 6 9.10457 6 8H4C4 10.2091 5.79086 12 8 12V10Z" fill="#D9D9D9"/>
</svg>
