<svg width="24" height="24" viewBox="0 0 24 24" fill="none" xmlns="http://www.w3.org/2000/svg">
<path d="M19 6L17.5333 7.1C17.1871 7.35964 16.7661 7.5 16.3333 7.5H12.975C12.3775 7.5 11.8312 7.83761 11.564 8.37206V8.37206C11.2342 9.03161 11.4053 9.83161 11.976 10.2986L13.976 11.9349C15.5499 13.2227 16.3644 15.22 16.1399 17.2412L16.1199 17.4206C16.0403 18.1369 15.8643 18.8392 15.5967 19.5083L15 21" stroke="#222222" stroke-width="1.5"/>
<path d="M2.5 10.5L5.7381 9.96032C7.09174 9.73471 8.26529 10.9083 8.03968 12.2619L7.90517 13.069C7.66434 14.514 8.3941 15.9471 9.70437 16.6022V16.6022C10.7535 17.1268 11.2976 18.3097 11.0131 19.4476L10.5 21.5" stroke="#222222" stroke-width="1.5"/>
<circle cx="12" cy="12" r="9.25" stroke="#222222" stroke-width="1.5"/>
</svg>
