<svg width="24" height="23" viewBox="0 0 24 23" fill="none" xmlns="http://www.w3.org/2000/svg">
<path d="M12 0.00133324C16.224 0.00133324 18.6213 2.79733 18.9693 6.17467H19.076C19.7218 6.17361 20.3615 6.29982 20.9585 6.54607C21.5555 6.79231 22.0982 7.15378 22.5554 7.60981C23.0127 8.06585 23.3756 8.60751 23.6235 9.20385C23.8714 9.80019 23.9993 10.4395 24 11.0853C23.9991 11.7309 23.8711 12.37 23.6232 12.9661C23.3754 13.5622 23.0125 14.1036 22.5554 14.5595C22.0983 15.0154 21.5559 15.3768 20.9591 15.623C20.3623 15.8693 19.7229 15.9955 19.0773 15.9947H18.3013L18.2973 16H17.9453C17.9178 16.0785 17.8807 16.1533 17.8347 16.2227L16.5013 18.2227C16.3529 18.4401 16.1246 18.5903 15.8662 18.6405C15.6077 18.6907 15.3398 18.637 15.1207 18.4909C14.9016 18.3448 14.749 18.1183 14.6959 17.8604C14.6429 17.6024 14.6937 17.334 14.8373 17.1133L15.5827 15.9947H13.1427L13.14 16H12.6107C12.5831 16.0781 12.546 16.1524 12.5 16.2213L11.1667 18.2213C11.0958 18.3348 11.0029 18.4329 10.8934 18.5099C10.784 18.5868 10.6602 18.641 10.5294 18.6692C10.3987 18.6975 10.2635 18.6992 10.1321 18.6742C10.0006 18.6493 9.87554 18.5983 9.76418 18.5241C9.65281 18.4499 9.55746 18.3542 9.48377 18.2425C9.41008 18.1309 9.35955 18.0056 9.33516 17.874C9.31078 17.7425 9.31304 17.6073 9.34181 17.4767C9.37058 17.346 9.42528 17.2225 9.50267 17.1133L10.2493 15.9947H7.98133L7.98 16H7.27733C7.24943 16.0786 7.21181 16.1534 7.16533 16.2227L5.832 18.2227C5.68354 18.4401 5.4553 18.5903 5.19682 18.6405C4.93834 18.6907 4.67049 18.637 4.4514 18.4909C4.23231 18.3448 4.07967 18.1183 4.02661 17.8604C3.97355 17.6024 4.02436 17.334 4.168 17.1133L4.91467 15.9947C3.61225 15.9943 2.3632 15.4771 1.44175 14.5567C0.520297 13.6362 0.00176618 12.3878 0 11.0853C0.000524706 10.4394 0.128333 9.79994 0.376121 9.20344C0.623908 8.60694 0.986817 8.06512 1.44411 7.60895C1.90139 7.15278 2.4441 6.79119 3.0412 6.54486C3.6383 6.29853 4.27809 6.17228 4.924 6.17333H5.03067C5.38 2.77333 7.77467 0 12 0V0.00133324ZM12 1.99867C9.23867 1.99867 6.83067 4.176 6.83067 7.184C6.83067 7.66 6.40533 8.03467 5.91867 8.03467H4.99867C3.31733 8.03467 1.95333 9.36933 1.95333 11.016C1.95333 12.6627 3.31733 13.9987 4.99867 13.9987H19C20.6813 13.9987 22.0453 12.6627 22.0453 11.016C22.0453 9.36933 20.6813 8.03467 19 8.03467H18.08C17.5933 8.03467 17.168 7.66133 17.168 7.184C17.168 4.13733 14.76 1.99733 11.9987 1.99733L12 1.99867ZM5.50133 21.112C5.42677 21.2212 5.37461 21.3442 5.34788 21.4737C5.32115 21.6032 5.32037 21.7367 5.34559 21.8665C5.37081 21.9964 5.42154 22.1199 5.49482 22.23C5.56811 22.3401 5.6625 22.4345 5.77253 22.5079C5.88257 22.5812 6.00606 22.632 6.13587 22.6573C6.26567 22.6826 6.3992 22.682 6.52874 22.6553C6.65827 22.6287 6.78124 22.5766 6.89051 22.5021C6.99978 22.4276 7.09319 22.3322 7.16533 22.2213L8.49867 20.2213C8.57323 20.1121 8.62539 19.9892 8.65212 19.8597C8.67885 19.7301 8.67963 19.5966 8.65441 19.4668C8.62919 19.337 8.57847 19.2134 8.50518 19.1034C8.4319 18.9933 8.3375 18.8988 8.22747 18.8255C8.11743 18.7521 7.99394 18.7013 7.86413 18.676C7.73433 18.6507 7.6008 18.6514 7.47126 18.678C7.34173 18.7047 7.21877 18.7568 7.10949 18.8312C7.00022 18.9057 6.90681 19.0012 6.83467 19.112L5.50133 21.112ZM11.112 22.4987C10.8914 22.3515 10.7382 22.1228 10.6862 21.8628C10.6342 21.6027 10.6876 21.3327 10.8347 21.112L12.168 19.112C12.2401 19.0012 12.3336 18.9057 12.4428 18.8312C12.5521 18.7568 12.6751 18.7047 12.8046 18.678C12.9341 18.6514 13.0677 18.6507 13.1975 18.676C13.3273 18.7013 13.4508 18.7521 13.5608 18.8255C13.6708 18.8988 13.7652 18.9933 13.8385 19.1034C13.9118 19.2134 13.9625 19.337 13.9877 19.4668C14.013 19.5966 14.0122 19.7301 13.9855 19.8597C13.9587 19.9892 13.9066 20.1121 13.832 20.2213L12.4987 22.2213C12.3515 22.442 12.1228 22.5952 11.8628 22.6472C11.6027 22.6992 11.3327 22.6458 11.112 22.4987Z" fill="#4791EB"/>
</svg>
